<svg version="1.1" class="triangle-menu-left" xmlns="http://www.w3.org/2000/svg" xmlns:xlink="http://www.w3.org/1999/xlink" x="0px" y="0px"
	 width="13px" height="26px" viewBox="0 0 13 26" style="enable-background:new 0 0 13 26;" xml:space="preserve">
<polygon points="1,12 1,11 2,11 2,10 3,10 3,9 4,9 4,8 5,8 5,7 6,7 6,6 7,6 7,5 8,5 8,4 9,4 9,3 10,3 10,2 11,2 11,1 12,1 12,0 
	13,0 13,26 12,26 12,25 11,25 11,24 10,24 10,23 9,23 9,22 8,22 8,21 7,21 7,20 6,20 6,19 5,19 5,18 4,18 4,17 3,17 3,16 2,16 2,15 
	1,15 1,14 0,14 0,12 "/>
</svg>